# xmcd CD database file
#
# Track frame offsets:
#	150
#	23163
#	51515
#	64555
#	74730
#	93135
#	108823
#	128110
#	143015
#	185065
#	205035
#
# Disc length: 3066 seconds
#
# Revision: 3
# Processed by: cddbd v1.5.1PL2 Copyright (c) Steve Scherf et al.
# Submitted via: CDex 1.51
#
DISCID=9b0bf80b
DTITLE=Cryptopsy - And Then You'll Beg
DYEAR=2001
DGENRE=Death Metal
TTITLE0=And Then It Passes
TTITLE1=We Bleed
TTITLE2=Voice of Unreason
TTITLE3=My Prodigal Sun
TTITLE4=Shroud
TTITLE5=Soar And Envision Sore Vison
TTITLE6=Equivalent Equilibrium
TTITLE7=Back To The Worms
TTITLE8=Screams Go Unheard
TTITLE9=Born Headless (Live)
TTITLE10=Slit Your Guts (Live)
EXTD=YEAR: 2001
EXTT0=
EXTT1=
EXTT2=
EXTT3=
EXTT4=
EXTT5=
EXTT6=
EXTT7=
EXTT8=
EXTT9=
EXTT10=
PLAYORDER=
